<svg width="24" height="24" viewBox="0 0 24 24" fill="none" xmlns="http://www.w3.org/2000/svg">
<path d="M11.0002 6.0001H14.0002L17.2902 2.7001C17.3832 2.60637 17.4938 2.53197 17.6156 2.4812C17.7375 2.43044 17.8682 2.4043 18.0002 2.4043C18.1322 2.4043 18.2629 2.43044 18.3848 2.4812C18.5067 2.53197 18.6173 2.60637 18.7102 2.7001L21.2902 5.2901C21.4765 5.47746 21.581 5.73091 21.581 5.9951C21.581 6.25928 21.4765 6.51273 21.2902 6.7001L19.0002 9.0001H11.0002V11.0001C11.0002 11.2653 10.8949 11.5197 10.7073 11.7072C10.5198 11.8947 10.2654 12.0001 10.0002 12.0001C9.73501 12.0001 9.48066 11.8947 9.29312 11.7072C9.10558 11.5197 9.00023 11.2653 9.00023 11.0001V8.0001C9.00023 7.46966 9.21094 6.96095 9.58601 6.58588C9.96109 6.21081 10.4698 6.0001 11.0002 6.0001ZM5.00023 11.0001V15.0001L2.71023 17.2901C2.52398 17.4775 2.41943 17.7309 2.41943 17.9951C2.41943 18.2593 2.52398 18.5127 2.71023 18.7001L5.29023 21.2901C5.38319 21.3838 5.49379 21.4582 5.61565 21.509C5.73751 21.5598 5.86821 21.5859 6.00023 21.5859C6.13224 21.5859 6.26294 21.5598 6.3848 21.509C6.50666 21.4582 6.61726 21.3838 6.71023 21.2901L11.0002 17.0001H15.0002C15.2654 17.0001 15.5198 16.8947 15.7073 16.7072C15.8949 16.5197 16.0002 16.2653 16.0002 16.0001V15.0001H17.0002C17.2654 15.0001 17.5198 14.8947 17.7073 14.7072C17.8949 14.5197 18.0002 14.2653 18.0002 14.0001V13.0001H19.0002C19.2654 13.0001 19.5198 12.8947 19.7073 12.7072C19.8949 12.5197 20.0002 12.2653 20.0002 12.0001V11.0001H13.0002V12.0001C13.0002 12.5305 12.7895 13.0392 12.4144 13.4143C12.0394 13.7894 11.5307 14.0001 11.0002 14.0001H9.00023C8.46979 14.0001 7.96109 13.7894 7.58601 13.4143C7.21094 13.0392 7.00023 12.5305 7.00023 12.0001V9.0001L5.00023 11.0001Z" fill="#111111"/>
</svg>
