<svg width="16" height="16" viewBox="0 0 16 16" fill="none" xmlns="http://www.w3.org/2000/svg">
<path d="M12.4073 16H13.6145C14.2255 16 14.7273 15.5273 14.8 14.9309L16 2.94545H12.3636V0H10.9309V2.94545H7.31636L7.53455 4.64727C8.77818 4.98909 9.94182 5.60727 10.64 6.29091C11.6873 7.32364 12.4073 8.39273 12.4073 10.1382V16ZM0 15.2727V14.5455H10.9309V15.2727C10.9309 15.6655 10.6036 16 10.1818 16H0.727273C0.327273 16 0 15.6655 0 15.2727ZM10.9309 10.1818C10.9309 4.36364 0 4.36364 0 10.1818H10.9309ZM0 11.6364H10.9091V13.0909H0V11.6364Z" fill="#111111" fill-opacity="0.4"/>
</svg>
