<svg width="24" height="24" viewBox="0 0 24 24" fill="none" xmlns="http://www.w3.org/2000/svg">
<path d="M7.2 21C7.2 21 6 21 6 19.7215C6 18.4429 7.2 14.6073 12 14.6073C16.8 14.6073 18 18.4429 18 19.7215C18 21 16.8 21 16.8 21H7.2ZM12 13.3927C12.7956 13.3927 13.5587 13.0559 14.1213 12.4565C14.6839 11.8571 15 11.0441 15 10.1963C15 9.34862 14.6839 8.53562 14.1213 7.93619C13.5587 7.33676 12.7956 7 12 7C11.2044 7 10.4413 7.33676 9.87868 7.93619C9.31607 8.53562 9 9.34862 9 10.1963C9 11.0441 9.31607 11.8571 9.87868 12.4565C10.4413 13.0559 11.2044 13.3927 12 13.3927Z" fill="#111111" fill-opacity="0.4"/>
<path d="M4.5 3C3.83696 3 3.20107 3.25934 2.73223 3.72097C2.26339 4.1826 2 4.8087 2 5.46154L2 17.1538C2 17.6435 2.19754 18.1131 2.54917 18.4593C2.90081 18.8055 3.37772 19 3.875 19H4.69125C4.95261 18.0955 5.40688 17.2564 6.02375 16.5385H3.25V5.46154C3.25 5.13512 3.3817 4.82207 3.61612 4.59125C3.85054 4.36044 4.16848 4.23077 4.5 4.23077H19.5C19.8315 4.23077 20.1495 4.36044 20.3839 4.59125C20.6183 4.82207 20.75 5.13512 20.75 5.46154V16.5385H17.9762C18.6688 17.3434 19.0888 18.2283 19.3088 19H20.125C20.6223 19 21.0992 18.8055 21.4508 18.4593C21.8025 18.1131 22 17.6435 22 17.1538V5.46154C22 4.8087 21.7366 4.1826 21.2678 3.72097C20.7989 3.25934 20.163 3 19.5 3H4.5Z" fill="#111111" fill-opacity="0.4"/>
</svg>
