<svg width="32" height="32" viewBox="0 0 32 32" fill="none" xmlns="http://www.w3.org/2000/svg">
<path d="M0 8C0 3.58172 3.58172 0 8 0H24C28.4183 0 32 3.58172 32 8V24C32 28.4183 28.4183 32 24 32H8C3.58172 32 0 28.4183 0 24V8Z" fill="#F0DC00"/>
<path d="M16.0001 15.5204C15.2801 15.5204 14.8001 16.0004 14.8001 16.7204C14.8001 17.2004 15.1601 17.5604 15.5201 17.6804L15.1601 19.3604H16.7201L16.3601 17.6804C16.8401 17.5604 17.0801 17.2004 17.0801 16.7204C17.2001 16.0004 16.7201 15.5204 16.0001 15.5204ZM16.1201 10.3604C15.2801 10.3604 14.4401 10.9604 14.4401 11.8004V13.6004H17.6801V11.8004C17.5601 10.9604 16.9601 10.3604 16.1201 10.3604ZM16.0001 6.40039L7.6001 10.0004V13.6004C7.7201 18.8804 11.0801 23.5604 16.0001 25.4804C20.9201 23.5604 24.2801 18.8804 24.4001 13.6004V10.0004L16.0001 6.40039ZM20.8001 19.6004C20.8001 20.3204 20.3201 20.8004 19.6001 20.8004H12.4001C11.6801 20.8004 11.2001 20.3204 11.2001 19.6004V14.8004C11.2001 14.0804 11.6801 13.6004 12.4001 13.6004H12.7601V11.8004C12.8801 10.1204 14.3201 8.80039 16.0001 8.80039C17.6801 8.80039 19.1201 10.1204 19.2401 11.8004V13.6004H19.6001C20.3201 13.6004 20.8001 14.0804 20.8001 14.8004V19.6004Z" fill="#111111"/>
</svg>
