<svg width="18" height="16" viewBox="0 0 18 16" fill="none" xmlns="http://www.w3.org/2000/svg">
<path fill-rule="evenodd" clip-rule="evenodd" d="M17.6196 3.93867C17.5378 3.82051 17.4286 3.72393 17.3014 3.65721C17.1741 3.59049 17.0326 3.55561 16.8889 3.55556H4.74044L3.71467 1.09334C3.58017 0.76909 3.35242 0.492082 3.06029 0.297436C2.76816 0.102789 2.42481 -0.000729813 2.07378 3.8731e-06H0V1.77778H2.07378L6.29067 11.8978C6.35821 12.0597 6.47216 12.198 6.61816 12.2953C6.76415 12.3926 6.93567 12.4445 7.11111 12.4444H14.2222C14.5929 12.4444 14.9244 12.2142 15.0551 11.8684L17.7218 4.75734C17.7722 4.62278 17.7892 4.47801 17.7714 4.33543C17.7536 4.19285 17.7015 4.05671 17.6196 3.93867ZM7.55556 16C8.29193 16 8.88889 15.403 8.88889 14.6667C8.88889 13.9303 8.29193 13.3333 7.55556 13.3333C6.81918 13.3333 6.22222 13.9303 6.22222 14.6667C6.22222 15.403 6.81918 16 7.55556 16ZM15.1111 14.6667C15.1111 15.403 14.5142 16 13.7778 16C13.0414 16 12.4444 15.403 12.4444 14.6667C12.4444 13.9303 13.0414 13.3333 13.7778 13.3333C14.5142 13.3333 15.1111 13.9303 15.1111 14.6667Z" fill="#111111"/>
</svg>
