<svg width="13" height="20" viewBox="0 0 13 20" fill="none" xmlns="http://www.w3.org/2000/svg">
<path d="M2.8 8.6001L1 13.4001V19.4001H2.8V18.2001H11.2V19.4001H13V13.4001L11.248 8.6001H2.8ZM4.3 16.1001C3.808 16.1001 3.4 15.6921 3.4 15.2001C3.4 14.7081 3.808 14.3001 4.3 14.3001C4.792 14.3001 5.2 14.7081 5.2 15.2001C5.2 15.6921 4.792 16.1001 4.3 16.1001ZM9.7 16.1001C9.208 16.1001 8.8 15.6921 8.8 15.2001C8.8 14.7081 9.208 14.3001 9.7 14.3001C10.192 14.3001 10.6 14.7081 10.6 15.2001C10.6 15.6921 10.192 16.1001 9.7 16.1001ZM3.376 12.2001L4.048 10.4001H9.988L10.648 12.2001H3.376Z" fill="#111111" fill-opacity="0.4"/>
<path d="M6.2439 2.3002C5.8599 1.0882 4.7319 0.200195 3.3999 0.200195C1.7439 0.200195 0.399902 1.5442 0.399902 3.2002C0.399902 4.8562 1.7439 6.2002 3.3999 6.2002C4.7319 6.2002 5.8599 5.3122 6.2439 4.1002H9.9999V6.2002H11.7999V4.1002H12.9999V2.3002H6.2439ZM3.3999 4.4002C2.7519 4.4002 2.1999 3.8482 2.1999 3.2002C2.1999 2.5522 2.7519 2.0002 3.3999 2.0002C4.0479 2.0002 4.5999 2.5522 4.5999 3.2002C4.5999 3.8482 4.0479 4.4002 3.3999 4.4002Z" fill="#111111" fill-opacity="0.4"/>
</svg>
