<svg width="13" height="20" viewBox="0 0 13 20" fill="none" xmlns="http://www.w3.org/2000/svg">
<path d="M2.8 8.59985L1 13.3999V19.3999H2.8V18.1999H11.2V19.3999H13V13.3999L11.248 8.59985H2.8ZM4.3 16.0999C3.808 16.0999 3.4 15.6919 3.4 15.1999C3.4 14.7079 3.808 14.2999 4.3 14.2999C4.792 14.2999 5.2 14.7079 5.2 15.1999C5.2 15.6919 4.792 16.0999 4.3 16.0999ZM9.7 16.0999C9.208 16.0999 8.8 15.6919 8.8 15.1999C8.8 14.7079 9.208 14.2999 9.7 14.2999C10.192 14.2999 10.6 14.7079 10.6 15.1999C10.6 15.6919 10.192 16.0999 9.7 16.0999ZM3.376 12.1999L4.048 10.3999H9.988L10.648 12.1999H3.376Z" fill="#111111" fill-opacity="0.4"/>
<path d="M6.2439 2.29995C5.8599 1.08795 4.7319 0.199951 3.3999 0.199951C1.7439 0.199951 0.399902 1.54395 0.399902 3.19995C0.399902 4.85595 1.7439 6.19995 3.3999 6.19995C4.7319 6.19995 5.8599 5.31195 6.2439 4.09995H9.9999V6.19995H11.7999V4.09995H12.9999V2.29995H6.2439ZM3.3999 4.39995C2.7519 4.39995 2.1999 3.84795 2.1999 3.19995C2.1999 2.55195 2.7519 1.99995 3.3999 1.99995C4.0479 1.99995 4.5999 2.55195 4.5999 3.19995C4.5999 3.84795 4.0479 4.39995 3.3999 4.39995Z" fill="#111111" fill-opacity="0.4"/>
</svg>
