<svg width="24" height="24" viewBox="0 0 24 24" fill="none" xmlns="http://www.w3.org/2000/svg">
<path d="M19.0002 22H5.00024V20H19.0002V22ZM17.0002 10C15.5802 10 14.2602 10.77 13.5502 12H13.0002V7H16.0002V5H13.0002V2H11.0002V5H8.00024V7H11.0002V12H10.4502C9.35024 10.09 6.90024 9.43 5.00024 10.54C3.07024 11.64 2.42024 14.09 3.50024 16C4.24024 17.24 5.57024 18 7.00024 18H17.0002C18.0611 18 19.0785 17.5786 19.8287 16.8284C20.5788 16.0783 21.0002 15.0609 21.0002 14C21.0002 12.9391 20.5788 11.9217 19.8287 11.1716C19.0785 10.4214 18.0611 10 17.0002 10Z" fill="#111111" fill-opacity="0.4"/>
</svg>
