<svg width="40" height="40" viewBox="0 0 40 40" fill="none" xmlns="http://www.w3.org/2000/svg">
<path d="M0 20C0 8.95431 8.95431 0 20 0C31.0457 0 40 8.95431 40 20C40 31.0457 31.0457 40 20 40C8.95431 40 0 31.0457 0 20Z" fill="#111111" fill-opacity="0.06"/>
<path d="M20 24C22.206 24 24 22.206 24 20C24 17.794 22.206 16 20 16C17.794 16 16 17.794 16 20C16 22.206 17.794 24 20 24ZM20 18C21.084 18 22 18.916 22 20C22 21.084 21.084 22 20 22C18.916 22 18 21.084 18 20C18 18.916 18.916 18 20 18Z" fill="#111111"/>
<path d="M10.845 24.136L11.845 25.866C12.376 26.783 13.654 27.127 14.575 26.596L15.104 26.29C15.6825 26.7451 16.3204 27.1192 17 27.402V28C17 29.103 17.897 30 19 30H21C22.103 30 23 29.103 23 28V27.402C23.6793 27.1192 24.3172 26.7454 24.896 26.291L25.425 26.597C26.348 27.127 27.623 26.785 28.156 25.866L29.155 24.137C29.42 23.6777 29.4919 23.132 29.3548 22.6197C29.2177 22.1075 28.8829 21.6706 28.424 21.405L27.919 21.113C28.0263 20.3756 28.0263 19.6264 27.919 18.889L28.424 18.597C28.8827 18.3312 29.2174 17.8943 29.3544 17.3822C29.4914 16.87 29.4197 16.3244 29.155 15.865L28.156 14.136C27.625 13.216 26.348 12.871 25.425 13.404L24.896 13.71C24.3174 13.2549 23.6796 12.8808 23 12.598V12C23 10.897 22.103 10 21 10H19C17.897 10 17 10.897 17 12V12.598C16.3206 12.8808 15.6828 13.2546 15.104 13.709L14.575 13.403C13.651 12.872 12.375 13.216 11.844 14.135L10.845 15.864C10.58 16.3233 10.5081 16.869 10.6452 17.3813C10.7822 17.8935 11.117 18.3304 11.576 18.596L12.081 18.888C11.9732 19.6251 11.9732 20.3739 12.081 21.111L11.576 21.403C11.1171 21.669 10.7825 22.106 10.6455 22.6184C10.5084 23.1307 10.5802 23.6765 10.845 24.136ZM14.171 21.378C14.0581 20.9273 14.0006 20.4646 14 20C14 19.538 14.058 19.074 14.17 18.622C14.2227 18.4113 14.2054 18.1892 14.1206 17.9893C14.0358 17.7893 13.8881 17.6225 13.7 17.514L12.577 16.864L13.575 15.135L14.72 15.797C14.9067 15.905 15.1234 15.9496 15.3376 15.924C15.5519 15.8984 15.752 15.804 15.908 15.655C16.5845 15.0116 17.4003 14.5328 18.292 14.256C18.4968 14.1935 18.6761 14.0668 18.8036 13.8947C18.931 13.7226 18.9999 13.5142 19 13.3V12H21V13.3C21.0001 13.5142 21.0689 13.7226 21.1964 13.8947C21.3238 14.0668 21.5032 14.1935 21.708 14.256C22.5995 14.5332 23.4152 15.0119 24.092 15.655C24.2481 15.8037 24.4482 15.8979 24.6624 15.9235C24.8765 15.9491 25.0932 15.9047 25.28 15.797L26.424 15.136L27.424 16.865L26.3 17.514C26.112 17.6226 25.9644 17.7895 25.8796 17.9894C25.7948 18.1893 25.7774 18.4113 25.83 18.622C25.942 19.074 26 19.538 26 20C26 20.461 25.942 20.925 25.829 21.378C25.7765 21.5888 25.7941 21.8109 25.8791 22.0108C25.964 22.2107 26.1118 22.3775 26.3 22.486L27.423 23.135L26.425 24.864L25.28 24.203C25.0933 24.0948 24.8765 24.0501 24.6623 24.0757C24.448 24.1013 24.2479 24.1958 24.092 24.345C23.4155 24.9884 22.5996 25.4672 21.708 25.744C21.5032 25.8065 21.3238 25.9332 21.1964 26.1053C21.0689 26.2774 21.0001 26.4858 21 26.7L21.002 28H19V26.7C18.9999 26.4858 18.931 26.2774 18.8036 26.1053C18.6761 25.9332 18.4968 25.8065 18.292 25.744C17.4005 25.4668 16.5848 24.9881 15.908 24.345C15.7523 24.1954 15.552 24.1007 15.3376 24.0753C15.1232 24.0498 14.9064 24.095 14.72 24.204L13.576 24.866L12.576 23.137L13.7 22.486C13.8882 22.3775 14.0359 22.2107 14.1209 22.0108C14.2059 21.8109 14.2235 21.5888 14.171 21.378Z" fill="#111111"/>
</svg>
