<svg width="32" height="32" viewBox="0 0 32 32" fill="none" xmlns="http://www.w3.org/2000/svg">
<path d="M0 8C0 3.58172 3.58172 0 8 0H24C28.4183 0 32 3.58172 32 8V24C32 28.4183 28.4183 32 24 32H8C3.58172 32 0 28.4183 0 24V8Z" fill="#F0DC00"/>
<g clip-path="url(#clip0_29117_401)">
<path d="M17 18.062V26H8C7.99989 24.8649 8.24133 23.7428 8.70827 22.7083C9.1752 21.6737 9.85695 20.7503 10.7082 19.9995C11.5595 19.2487 12.5608 18.6876 13.6456 18.3536C14.7304 18.0195 15.8738 17.9201 17 18.062ZM16 17C12.685 17 10 14.315 10 11C10 7.685 12.685 5 16 5C19.315 5 22 7.685 22 11C22 14.315 19.315 17 16 17ZM21.793 23.914L25.328 20.379L26.743 21.793L21.793 26.743L18.257 23.207L19.672 21.793L21.793 23.914Z" fill="#111111"/>
</g>
<defs>
<clipPath id="clip0_29117_401">
<rect width="24" height="24" fill="white" transform="translate(4 4)"/>
</clipPath>
</defs>
</svg>
