<svg width="32" height="32" viewBox="0 0 32 32" fill="none" xmlns="http://www.w3.org/2000/svg">
<path d="M0 8C0 3.58172 3.58172 0 8 0H24C28.4183 0 32 3.58172 32 8V24C32 28.4183 28.4183 32 24 32H8C3.58172 32 0 28.4183 0 24V8Z" fill="#F0DC00"/>
<path d="M22.72 18.7599C23.07 17.9099 23.26 16.9999 23.26 15.9999C23.26 15.2799 23.15 14.5899 22.96 13.9499C22.31 14.0999 21.63 14.1799 20.92 14.1799C17.86 14.1799 15.15 12.6699 13.5 10.3399C12.61 12.4999 10.91 14.2599 8.77 15.2199C8.73 15.4699 8.73 15.7399 8.73 15.9999C8.73 17.928 9.49594 19.7772 10.8593 21.1406C12.2227 22.504 14.0719 23.2699 16 23.2699C17.05 23.2699 18.06 23.0399 18.97 22.6299C19.54 23.7199 19.8 24.2599 19.78 24.2599C18.14 24.8099 16.87 25.0799 16 25.0799C13.58 25.0799 11.27 24.1299 9.57 22.4199C8.53 21.3799 7.76 20.1099 7.33 18.7299H6V14.1799H7.09C7.93 10.0399 11.6 6.91992 16 6.91992C18.4 6.91992 20.71 7.86992 22.42 9.57992C23.69 10.8399 24.54 12.4499 24.89 14.1799H26V18.6699V18.6899V18.7299H25.94L22.38 21.9999L17.08 21.3999V19.7299H21.91L22.72 18.7599ZM13.27 15.7699C13.57 15.7699 13.86 15.8899 14.07 16.1099C14.28 16.3199 14.4 16.6099 14.4 16.9099C14.4 17.2099 14.28 17.4999 14.07 17.7099C13.86 17.9199 13.57 18.0399 13.27 18.0399C12.64 18.0399 12.13 17.5399 12.13 16.9099C12.13 16.2799 12.64 15.7699 13.27 15.7699ZM18.72 15.7699C19.35 15.7699 19.85 16.2799 19.85 16.9099C19.85 17.5399 19.35 18.0399 18.72 18.0399C18.09 18.0399 17.58 17.5399 17.58 16.9099C17.58 16.6076 17.7001 16.3176 17.9139 16.1038C18.1277 15.89 18.4177 15.7699 18.72 15.7699Z" fill="#111111"/>
</svg>
