<svg width="32" height="32" viewBox="0 0 32 32" fill="none" xmlns="http://www.w3.org/2000/svg">
<path d="M0 8C0 3.58172 3.58172 0 8 0H24C28.4183 0 32 3.58172 32 8V24C32 28.4183 28.4183 32 24 32H8C3.58172 32 0 28.4183 0 24V8Z" fill="#F0DC00"/>
<path fill-rule="evenodd" clip-rule="evenodd" d="M7.40356 7.94434C7.40356 6.83977 8.29899 5.94434 9.40356 5.94434H20.3464L24.7369 10.3349V23.9443C24.7369 25.0489 23.8414 25.9443 22.7369 25.9443H9.40356C8.29899 25.9443 7.40356 25.0489 7.40356 23.9443V7.94434ZM11.4041 11.2738L18.0708 11.2781L18.0699 12.6115L11.4032 12.6071L11.4041 11.2738ZM20.7369 15.2716H11.4036V16.6049H20.7369V15.2716ZM20.7377 19.2783L11.4044 19.2682L11.4029 20.6015L20.7362 20.6117L20.7377 19.2783Z" fill="#111111"/>
</svg>
