<svg width="13" height="16" viewBox="0 0 13 16" fill="none" xmlns="http://www.w3.org/2000/svg">
<path d="M9.9 0H2.8968C2.7176 0 1.7776 0.052 0.8944 1.0808C0.0248 2.0928 0 3.0896 0 3.2V12C0 12.4243 0.168571 12.8313 0.468629 13.1314C0.768687 13.4314 1.17565 13.6 1.6 13.6H2.4L0.8 16H2.6824L3.216 15.2H9.616L10.1576 16H12L10.4 13.6H11.2C11.6243 13.6 12.0313 13.4314 12.3314 13.1314C12.6314 12.8313 12.8 12.4243 12.8 12V3.2C12.8008 3.0496 12.7744 2.0528 11.8968 1.068C10.972 0.0296 10.0072 0 9.9 0ZM4.8 1.6H8V3.2H4.8V1.6ZM2.8 12C2.48163 11.9999 2.17635 11.8733 1.95131 11.6481C1.72626 11.4229 1.59989 11.1176 1.6 10.7992C1.60011 10.4808 1.72668 10.1755 1.95187 9.95051C2.17707 9.72546 2.48243 9.59909 2.8008 9.5992C3.11917 9.59931 3.42445 9.72588 3.64949 9.95107C3.87454 10.1763 4.00091 10.4816 4.0008 10.8C4.00069 11.1184 3.87412 11.4237 3.64893 11.6487C3.42373 11.8737 3.11837 12.0001 2.8 12ZM10 12C9.68163 11.9999 9.37635 11.8733 9.15131 11.6481C8.92626 11.4229 8.79989 11.1176 8.8 10.7992C8.80011 10.4808 8.92668 10.1755 9.15187 9.95051C9.37707 9.72546 9.68243 9.59909 10.0008 9.5992C10.3192 9.59931 10.6244 9.72588 10.8495 9.95107C11.0745 10.1763 11.2009 10.4816 11.2008 10.8C11.2007 11.1184 11.0741 11.4237 10.8489 11.6487C10.6237 11.8737 10.3184 12.0001 10 12ZM11.2 8H1.6V4.8H11.2V8Z" fill="#111111" fill-opacity="0.4"/>
</svg>
